<?xml version="1.0" encoding="utf-8"?>
<!-- Generator: Adobe Illustrator 27.8.1, SVG Export Plug-In . SVG Version: 6.00 Build 0)  -->
<svg version="1.1" xmlns="http://www.w3.org/2000/svg" xmlns:xlink="http://www.w3.org/1999/xlink" x="0px" y="0px"
	 viewBox="0 0 800 800" style="enable-background:new 0 0 800 800;" xml:space="preserve">
<style type="text/css">
	.st0{fill:#FFFFFF;stroke:#000000;stroke-miterlimit:10;}
	.st1{fill-rule:evenodd;clip-rule:evenodd;fill:#20744A;}
	.st2{fill:#20744A;}
	.st3{fill-rule:evenodd;clip-rule:evenodd;fill:#FFFFFF;}
</style>
<g id="Livello_2">
	<rect x="435" y="121.9" class="st0" width="301" height="529"/>
</g>
<g id="Livello_1">
	<path class="st1" d="M719.5,110.1H466.3V50.4L50,114.7v563.2l416.3,71.7v-88.4h253.3c16,0.8,29.6-11.4,30.5-27.4V137.5
		C749.1,121.5,735.5,109.3,719.5,110.1z M723.5,638.3H465.4L465,591h62.2v-55h-62.6l-0.3-32.5h62.9v-55h-63.4l-0.3-32.5h63.7v-55
		h-63.9v-32.5h63.9v-55h-63.9V241h63.9v-55h-63.9v-50h260.3V638.3z"/>
	<rect x="562.2" y="186" class="st2" width="108.1" height="55"/>
	<rect x="562.2" y="273.5" class="st2" width="108.1" height="55"/>
	<rect x="562.2" y="361" class="st2" width="108.1" height="55"/>
	<rect x="562.2" y="448.5" class="st2" width="108.1" height="55"/>
	<rect x="562.2" y="536.1" class="st2" width="108.1" height="55"/>
	<polygon class="st3" points="158.7,266.8 212.3,263.8 246.1,356.5 285.9,259.9 339.5,256.8 274.4,388.5 339.5,520.5 282.8,516.7 
		244.5,416 206.2,512.8 154.1,508.2 214.6,391.6 	"/>
</g>
</svg>
