<?xml version="1.0" encoding="utf-8"?>
<!-- Generator: Adobe Illustrator 27.8.1, SVG Export Plug-In . SVG Version: 6.00 Build 0)  -->
<svg version="1.1" id="Livello_1" xmlns="http://www.w3.org/2000/svg" xmlns:xlink="http://www.w3.org/1999/xlink" x="0px" y="0px"
	 viewBox="0 0 800 800" style="enable-background:new 0 0 800 800;" xml:space="preserve">
<style type="text/css">
	.st0{fill:#1275B1;}
	.st1{fill:#FFFFFF;}
</style>
<path class="st0" d="M400,0L400,0c220.9,0,400,179.1,400,400l0,0c0,220.9-179.1,400-400,400l0,0C179.1,800,0,620.9,0,400l0,0
	C0,179.1,179.1,0,400,0z"/>
<path class="st1" d="M315.5,242.3c0,23.4-20.3,42.3-45.2,42.3c-25,0-45.2-18.9-45.2-42.3s20.3-42.3,45.2-42.3
	C295.2,200,315.5,218.9,315.5,242.3z"/>
<path class="st1" d="M231.2,315.7h77.3V550h-77.3V315.7z"/>
<path class="st1" d="M433,315.7h-77.3V550H433c0,0,0-73.8,0-119.9c0-27.7,9.5-55.5,47.2-55.5c42.6,0,42.4,36.2,42.2,64.3
	c-0.3,36.7,0.4,74.1,0.4,111.1H600V426.3c-0.7-79-21.2-115.3-88.9-115.3c-40.2,0-65.1,18.3-78.1,34.8V315.7z"/>
</svg>
