<?xml version="1.0" encoding="utf-8"?>
<!-- Generator: Adobe Illustrator 27.8.1, SVG Export Plug-In . SVG Version: 6.00 Build 0)  -->
<svg version="1.1" xmlns="http://www.w3.org/2000/svg" xmlns:xlink="http://www.w3.org/1999/xlink" x="0px" y="0px"
	 viewBox="0 0 800 800" style="enable-background:new 0 0 800 800;" xml:space="preserve">
<style type="text/css">
	.st0{fill:#FFFFFF;}
	.st1{fill-rule:evenodd;clip-rule:evenodd;fill:#5D87A1;}
	.st2{fill-rule:evenodd;clip-rule:evenodd;fill:#00758F;}
</style>
<g id="Livello_2">
	<circle class="st0" cx="400" cy="400" r="400"/>
</g>
<g id="Livello_1">
	<path class="st1" d="M256.1,217.7c-5.3,0-10.6,0.7-15.7,2v0.7h0.8c3.7,5.5,7.8,10.8,12.2,15.7c3.1,6.1,5.8,12.2,8.8,18.3
		c0.4-0.4,0.8-0.8,0.8-0.8c5.8-4.6,8.8-11.8,8-19.1c-1.7-2.6-3.2-5.3-4.6-8C264.1,222.7,259.1,220.8,256.1,217.7"/>
	<path class="st2" d="M635.8,551.3c-25.2-1.8-50.5,1.9-74.2,10.7c-5.7,2.3-14.9,2.3-15.7,9.6c3.1,3.1,3.4,8,6.1,12.3
		c5.2,8.9,12,16.8,19.9,23.3c8,6.1,16,12.2,24.5,17.6c14.9,9.2,31.7,14.6,46.3,23.7c8.4,5.4,16.8,12.2,25.3,18
		c4.2,3.1,6.9,8,12.2,10v-1.2c-1.6-4.2-3.5-8.3-5.8-12.3c-3.8-3.8-7.7-7.3-11.5-11.1c-11.2-14.8-24.6-27.8-39.8-38.6
		c-12.3-8.4-39-20-44-34l-0.8-0.8c9-1.3,17.8-3.3,26.4-6.2c13-3.4,24.8-2.7,38.2-6c6.1-1.5,17.2-5.4,17.2-5.4v-6
		c-6.8-6.8-11.7-15.9-18.9-22.3c-19.6-17.1-40.4-32.6-62.4-46.5c-11.7-7.6-26.9-12.5-39.4-18.9c-4.5-2.3-12-3.4-14.7-7.2
		c-6.2-9.1-11.4-18.9-15.5-29.1c-11-20.8-21.6-43.8-31-65.8c-5.6-14.7-12-29.1-19.3-43.1c-35.1-59.6-85.7-108.5-146.4-141.6
		c-15.3-7.4-31.6-12.6-48.4-15.5c-9.5-0.4-18.9-1.1-28.4-1.5c-6.1-4-11.9-8.4-17.4-13.3c-21.6-13.7-77.2-43.1-93.1-4.2
		c-10.2,24.6,15.2,48.8,23.8,61.3c7.3,8.8,13.8,18.3,19.3,28.4c2.7,6.4,3.4,13.3,6,20c5.5,17.3,12.1,34.2,19.7,50.7
		c4.1,8.2,8.7,16,14,23.4c3.1,4.2,8.3,6,9.5,12.9c-4.2,9-7.1,18.6-8.7,28.4c-13.3,42.1-9.4,87.9,11,127.1c6,9.5,20.4,30.3,39.7,22.3
		c17-6.8,13.2-28.4,18.2-47.3c1.1-4.6,0.4-7.6,2.6-10.6v3.7c0,0,9.7,21.2,14.5,32c13,19.8,29.3,37.3,48,51.8
		c7.4,6.5,13.4,14.4,17.5,23.3v6.9h8.5c-0.4-6.3-3.5-12-8.5-15.8c-7-7.2-13.4-15-19.2-23.2c-15.6-22.3-29.4-45.8-41.3-70.3
		c-6-12-11.1-25.1-15.9-37.1c-2.2-4.6-2.2-11.6-5.9-14c-6.8,8.1-12.8,16.9-17.7,26.2c-6,18.9-9.4,38.6-10.3,58.4
		c-1.5,0.4-0.7,0-1.5,0.8c-11.8-3.1-15.8-15.8-20.3-26.6c-11.5-33.3-12.6-69.3-3.3-103.2c2.6-8.1,13.7-33.6,9.2-41.3
		c-2.2-7.4-9.6-11.6-13.6-17.4c-5.2-7.8-9.6-16.1-13.3-24.7c-8.8-21.5-13.2-45.5-22.8-67.2c-5.3-10.4-11.4-20.4-18.4-29.8
		c-7.7-9.4-14.5-19.5-20.3-30.1c-1.8-4.3-4.4-11.2-1.5-15.9c0.4-2.6,2.5-4.7,5.2-5c4.8-4.2,18.4,1.2,23.2,3.5
		c12.8,5.1,25.1,11.5,36.5,19.3c5.2,3.9,17.3,13.7,17.3,13.7h3.6c12.2,2.7,26,0.7,37.5,4.2c19.4,6.5,37.9,15.3,55.1,26.4
		c50.6,32.3,91.8,77.4,119.3,130.8c4.6,8.8,6.5,16.8,10.7,26c8,18.8,18,38,26,56.2c7.1,18.1,16.2,35.3,27.2,51.3
		c5.7,8,28.7,12.2,39,16.4c9,3.1,17.8,6.7,26.4,10.7c13,8,26,17.2,38.2,26c6.1,4.6,25.2,14.2,26.4,21.8"/>
</g>
</svg>
