<?xml version="1.0" encoding="UTF-8"?>
<svg xmlns="http://www.w3.org/2000/svg" xmlns:xlink="http://www.w3.org/1999/xlink" width="32px" height="px" viewBox="0 0 200 200" version="1.1">
<g id="surface1">
<path style=" stroke:none;fill-rule:nonzero;fill:rgb(32.549021%,75.686276%,87.058824%);fill-opacity:1;" d="M 116.742188 99.847656 C 116.742188 90.882812 109.246094 83.617188 100 83.617188 C 90.753906 83.617188 83.257812 90.882812 83.257812 99.847656 C 83.257812 108.816406 90.753906 116.082031 100 116.082031 C 109.246094 116.082031 116.742188 108.816406 116.742188 99.847656 Z M 116.742188 99.847656 "/>
<path style=" stroke:none;fill-rule:evenodd;fill:rgb(32.549021%,75.686276%,87.058824%);fill-opacity:1;" d="M 154.378906 69.710938 C 157.914062 55.78125 162.359375 29.945312 146.691406 21.1875 C 131.09375 12.46875 110.800781 29.175781 100.085938 39.207031 C 89.402344 29.277344 68.539062 12.640625 52.886719 21.425781 C 37.296875 30.175781 42.105469 55.578125 45.71875 69.597656 C 31.175781 73.601562 6.25 82.226562 6.25 99.847656 C 6.25 117.421875 31.152344 126.804688 45.605469 130.804688 C 41.980469 144.902344 37.414062 169.941406 53.019531 178.671875 C 68.734375 187.457031 89.53125 171.214844 100.347656 161.078125 C 111.128906 171.164062 131.230469 187.511719 146.828125 178.757812 C 162.472656 169.976562 158.398438 144.488281 154.78125 130.390625 C 168.796875 126.382812 193.75 117.203125 193.75 99.847656 C 193.75 82.398438 168.6875 73.703125 154.378906 69.710938 Z M 152.601562 122.917969 C 150.226562 115.636719 147.023438 107.890625 143.105469 99.886719 C 146.847656 92.074219 149.925781 84.429688 152.234375 77.191406 C 162.722656 80.140625 185.742188 86.882812 185.742188 99.847656 C 185.742188 112.9375 163.652344 119.742188 152.601562 122.917969 Z M 142.8125 172.039062 C 131.175781 178.570312 113.886719 162.933594 105.921875 155.503906 C 111.207031 149.902344 116.488281 143.390625 121.640625 136.15625 C 130.707031 135.375 139.269531 134.101562 147.035156 132.359375 C 149.578125 142.332031 154.5 165.476562 142.8125 172.039062 Z M 57.023438 171.945312 C 45.382812 165.4375 50.703125 143.089844 53.371094 132.707031 C 61.050781 134.355469 69.554688 135.539062 78.640625 136.253906 C 83.828125 143.332031 89.261719 149.839844 94.734375 155.535156 C 87.96875 161.878906 68.714844 178.480469 57.023438 171.945312 Z M 14.257812 99.847656 C 14.257812 86.710938 37.136719 80.019531 47.867188 77.078125 C 50.214844 84.476562 53.292969 92.214844 57.007812 100.039062 C 53.246094 107.980469 50.125 115.839844 47.753906 123.324219 C 37.523438 120.484375 14.257812 112.996094 14.257812 99.847656 Z M 56.898438 28.148438 C 68.585938 21.589844 86.71875 37.5625 94.472656 44.75 C 89.027344 50.421875 83.644531 56.878906 78.5 63.914062 C 69.683594 64.707031 61.242188 65.980469 53.480469 67.6875 C 50.570312 56.378906 45.222656 34.699219 56.898438 28.148438 Z M 127.371094 72.355469 C 133.351562 73.089844 139.085938 74.0625 144.46875 75.253906 C 142.851562 80.273438 140.835938 85.527344 138.464844 90.90625 C 135.027344 84.582031 131.335938 78.386719 127.371094 72.355469 Z M 100.089844 50.300781 C 103.785156 54.179688 107.484375 58.515625 111.125 63.214844 C 103.742188 62.875 96.34375 62.875 88.960938 63.210938 C 92.605469 58.554688 96.335938 54.226562 100.089844 50.300781 Z M 61.601562 90.902344 C 59.269531 85.539062 57.273438 80.265625 55.644531 75.171875 C 60.996094 74.011719 66.699219 73.0625 72.644531 72.34375 C 68.667969 78.359375 64.980469 84.554688 61.601562 90.902344 Z M 72.8125 127.910156 C 66.675781 127.246094 60.882812 126.34375 55.535156 125.21875 C 57.191406 120.035156 59.230469 114.648438 61.613281 109.167969 C 65.039062 115.582031 68.777344 121.839844 72.8125 127.910156 Z M 100.3125 149.945312 C 96.515625 145.976562 92.726562 141.582031 89.03125 136.855469 C 96.453125 137.140625 103.894531 137.140625 111.320312 136.820312 C 107.667969 141.628906 103.980469 146.03125 100.3125 149.945312 Z M 138.542969 108.890625 C 141.046875 114.425781 143.160156 119.785156 144.839844 124.878906 C 139.402344 126.082031 133.53125 127.050781 127.347656 127.773438 C 131.34375 121.628906 135.09375 115.335938 138.542969 108.890625 Z M 117.171875 128.714844 C 105.8125 129.5 94.386719 129.492188 83.023438 128.777344 C 76.566406 119.632812 70.820312 110.019531 65.859375 100.035156 C 70.796875 90.074219 76.503906 80.476562 82.925781 71.347656 C 94.296875 70.515625 105.734375 70.511719 117.105469 71.355469 C 123.476562 80.480469 129.171875 90.054688 134.222656 99.925781 C 129.230469 109.882812 123.496094 119.5 117.171875 128.714844 Z M 142.6875 27.917969 C 154.378906 34.453125 149.175781 57.671875 146.621094 67.765625 C 138.84375 66.027344 130.394531 64.730469 121.550781 63.925781 C 116.398438 56.8125 111.0625 50.34375 105.703125 44.746094 C 113.558594 37.402344 131.113281 21.441406 142.6875 27.917969 Z M 142.6875 27.917969 "/>
</g>
</svg>
