<?xml version="1.0" encoding="UTF-8"?>
<svg xmlns="http://www.w3.org/2000/svg" xmlns:xlink="http://www.w3.org/1999/xlink" width="32px" height="px" viewBox="0 0 128 128" version="1.1">
<g id="surface1">
<path style=" stroke:none;fill-rule:nonzero;fill:rgb(19.215687%,47.058824%,77.64706%);fill-opacity:1;" d="M 19.199219 0 L 108.800781 0 C 119.402344 0 128 8.597656 128 19.199219 L 128 108.800781 C 128 119.402344 119.402344 128 108.800781 128 L 19.199219 128 C 8.597656 128 0 119.402344 0 108.800781 L 0 19.199219 C 0 8.597656 8.597656 0 19.199219 0 Z M 19.199219 0 "/>
<path style=" stroke:none;fill-rule:nonzero;fill:rgb(100%,100%,100%);fill-opacity:1;" d="M 58.25 71 L 74.25 71 L 74.25 60.75 L 29.5 60.75 L 29.5 71 L 45.5 71 L 45.5 116.75 L 58.25 116.75 Z M 79.25 114.25 C 81.273438 115.300781 83.75 116.074219 86.5 116.601562 C 89.25 117.125 92.25 117.375 95.25 117.375 C 98.25 117.375 101 117.101562 103.75 116.523438 C 106.5 115.949219 108.75 115 110.75 113.773438 C 112.773438 112.449219 114.5 110.773438 115.5 108.523438 C 116.5 106.273438 117.273438 103.773438 117.273438 100.523438 C 117.273438 98.25 116.925781 96.273438 116.25 94.523438 C 115.574219 92.773438 114.601562 91.273438 113.25 90.023438 C 111.976562 88.699219 110.5 87.523438 108.75 86.523438 C 107 85.523438 105 84.476562 102.75 83.523438 C 101.101562 82.851562 99.75 82.199219 98.25 81.550781 C 96.949219 80.898438 95.824219 80.25 95 79.601562 C 94.074219 78.925781 93.375 78.226562 92.875 77.5 C 92.375 76.75 92.125 75.925781 92.125 75 C 92.125 74.148438 92.347656 73.375 92.800781 72.675781 C 93.253906 71.976562 93.875 71.398438 94.675781 70.898438 C 95.476562 70.398438 96.476562 70.023438 97.675781 69.75 C 98.851562 69.476562 100.148438 69.351562 101.675781 69.351562 C 102.726562 69.351562 103.824219 69.425781 104.925781 69.585938 C 106.074219 69.742188 107.25 69.984375 108.425781 70.308594 C 109.601562 70.636719 110.75 71.035156 111.925781 71.535156 C 113.023438 72.035156 114.050781 72.609375 114.925781 73.261719 L 114.925781 61.511719 C 113.023438 60.785156 110.925781 60.234375 108.675781 59.886719 C 106.425781 59.535156 103.925781 59.359375 100.925781 59.359375 C 97.925781 59.359375 95.175781 59.683594 92.425781 60.308594 C 89.675781 60.933594 87.425781 61.933594 85.425781 63.308594 C 83.398438 64.660156 81.925781 66.308594 80.675781 68.558594 C 79.5 70.660156 78.925781 73.058594 78.925781 76.058594 C 78.925781 79.808594 80 83.058594 82.175781 85.558594 C 84.324219 88.308594 87.675781 90.308594 91.925781 92.308594 C 93.648438 93.011719 95.175781 93.710938 96.675781 94.386719 C 98.175781 95.058594 99.425781 95.761719 100.425781 96.484375 C 101.5 97.210938 102.351562 98.011719 102.925781 98.859375 C 103.550781 99.710938 103.875 100.710938 103.875 101.859375 C 103.875 102.660156 103.679688 103.410156 103.300781 104.109375 C 102.921875 104.808594 102.324219 105.410156 101.523438 105.910156 C 100.726562 106.410156 99.75 106.808594 98.523438 107.109375 C 97.351562 107.386719 96.023438 107.535156 94.273438 107.535156 C 91.523438 107.535156 88.773438 107.058594 86.273438 106.109375 C 83.523438 105.160156 81.023438 103.734375 79.25 102.25 Z M 79.25 114.25 "/>
</g>
</svg>
